<?xml version="1.0" encoding="utf-8"?>
<!-- Generator: Adobe Illustrator 26.0.1, SVG Export Plug-In . SVG Version: 6.00 Build 0)  -->
<svg version="1.1" id="Layer_1" xmlns="http://www.w3.org/2000/svg" xmlns:xlink="http://www.w3.org/1999/xlink" x="0px" y="0px"
	 width="24px" height="24px" viewBox="0 0 24 24" style="enable-background:new 0 0 24 24;" xml:space="preserve">
<style type="text/css">
	.st0{fill:#8B5CF6;}
</style>
<path class="st0" d="M4.8,6.7C4.8,5.2,6,4,7.4,4c0.5,0,0.9,0.4,0.9,0.9c0,0.5-0.4,0.9-0.9,0.9C7,5.8,6.6,6.2,6.6,6.7v3.5
	c0,0.7-0.3,1.3-0.7,1.8c0.5,0.5,0.7,1.1,0.7,1.8v3.5c0,0.5,0.4,0.9,0.9,0.9c0.5,0,0.9,0.4,0.9,0.9S7.9,20,7.4,20
	c-1.5,0-2.7-1.2-2.7-2.7v-3.5c0-0.4-0.3-0.8-0.7-0.9l-0.4-0.1C3.3,12.8,3,12.4,3,12s0.3-0.8,0.7-0.9L4.1,11c0.4-0.1,0.7-0.5,0.7-0.9
	V6.7z M19,6.7C19,5.2,17.8,4,16.3,4c-0.5,0-0.9,0.4-0.9,0.9c0,0.5,0.4,0.9,0.9,0.9c0.5,0,0.9,0.4,0.9,0.9v3.5c0,0.7,0.3,1.3,0.7,1.8
	c-0.5,0.5-0.7,1.1-0.7,1.8v3.5c0,0.5-0.4,0.9-0.9,0.9c-0.5,0-0.9,0.4-0.9,0.9s0.4,0.9,0.9,0.9c1.5,0,2.7-1.2,2.7-2.7v-3.5
	c0-0.4,0.3-0.8,0.7-0.9l0.4-0.1c0.4-0.1,0.7-0.5,0.7-0.9s-0.3-0.8-0.7-0.9L19.7,11c-0.4-0.1-0.7-0.5-0.7-0.9V6.7z"/>
</svg>
