<svg xmlns="http://www.w3.org/2000/svg" width="24" height="24" viewBox="0 0 16 16">
<path fill="none" d="M12.5,13.5c0,0.6-0.4,1-1,1h-7c-0.6,0-1-0.4-1-1c0-4.9,0-5.4,0-11c0-0.6,0.4-1,1-1h3.6c0.3,0,0.5,0.1,0.7,0.3
	l3.4,3.4c0.2,0.2,0.3,0.4,0.3,0.7V13.5z"/>
<path fill-rule="evenodd" clip-rule="evenodd" fill="#64748B" d="M4.5,1C3.7,1,3,1.7,3,2.5V13c0,1.1,0.9,2,2,2h6.5c0.8,0,1.5-0.7,1.5-1.5V5.9c0-0.4-0.2-0.8-0.4-1.1L9.1,1.4
	C8.9,1.2,8.5,1,8.1,1H4.5z M4,13c0,0.6,0.4,1,1,1h6.5c0.3,0,0.5-0.2,0.5-0.5V6H9.5C8.7,6,8,5.3,8,4.5V2H4.5C4.2,2,4,2.2,4,2.5V13z
	 M9,4.5C9,4.8,9.2,5,9.5,5h1.8L9,2.7V4.5z"/>
</svg>
