<?xml version="1.0" encoding="utf-8"?>
<!-- Generator: Adobe Illustrator 26.0.1, SVG Export Plug-In . SVG Version: 6.00 Build 0)  -->
<svg version="1.1" id="Layer_1" xmlns="http://www.w3.org/2000/svg" xmlns:xlink="http://www.w3.org/1999/xlink" x="0px" y="0px"
	 width="24px" height="24px" viewBox="0 0 24 24" style="enable-background:new 0 0 24 24;" xml:space="preserve">
<style type="text/css">
	.st0{fill:#64748B;}
</style>
<path class="st0" d="M5,6h14c0.6,0,1,0.4,1,1l0,0c0,0.6-0.4,1-1,1H5C4.4,8,4,7.6,4,7l0,0C4,6.4,4.4,6,5,6z"/>
<path class="st0" d="M5,11h10c0.6,0,1,0.4,1,1l0,0c0,0.6-0.4,1-1,1H5c-0.6,0-1-0.4-1-1l0,0C4,11.4,4.4,11,5,11z"/>
<path class="st0" d="M5,16h14c0.6,0,1,0.4,1,1l0,0c0,0.6-0.4,1-1,1H5c-0.6,0-1-0.4-1-1l0,0C4,16.4,4.4,16,5,16z"/>
</svg>
