<?xml version="1.0" encoding="utf-8"?>
<!-- Generator: Adobe Illustrator 26.0.1, SVG Export Plug-In . SVG Version: 6.00 Build 0)  -->
<svg version="1.1" id="Layer_1" xmlns="http://www.w3.org/2000/svg" xmlns:xlink="http://www.w3.org/1999/xlink" x="0px" y="0px"
	 width="24px" height="24px" viewBox="0 0 24 24" style="enable-background:new 0 0 24 24;" xml:space="preserve">
<style type="text/css">
	.st0{fill:#64748B;}
	.st1{fill:#2563EB;}
</style>
<path class="st0" d="M12.9,6c-0.3,0-0.7-0.1-0.9-0.3L9,3.2C8.4,2.7,7.6,2.4,6.8,2.4H3.4C1.5,2.4,0,4,0,5.9v12.2
	c0,1.9,1.5,3.4,3.4,3.4H11v-2H3.4c-0.8,0-1.4-0.6-1.4-1.4V5.9c0-0.8,0.6-1.4,1.4-1.4h3.4c0.3,0,0.7,0.1,0.9,0.3l2.9,2.4
	C11.3,7.7,12.1,8,12.9,8h3.4V6H12.9z"/>
<path class="st0" d="M20.6,6h-4.3v2h4.3C21.4,8,22,8.6,22,9.4V11h2V9.4C24,7.5,22.5,6,20.6,6z"/>
<circle class="st1" cx="19.5" cy="19.5" r="4.5"/>
</svg>
